<svg width="35" height="35" viewBox="0 0 35 35" fill="none" xmlns="http://www.w3.org/2000/svg">
<path d="M17.0083 0.669206C17.1088 0.123321 17.8912 0.123321 17.9917 0.669206L18.6614 4.30441C19.7887 10.4235 24.5765 15.2113 30.6956 16.3386L34.3308 17.0083C34.8767 17.1088 34.8767 17.8912 34.3308 17.9917L30.6956 18.6614C24.5765 19.7887 19.7887 24.5765 18.6614 30.6956L17.9917 34.3308C17.8912 34.8767 17.1088 34.8767 17.0083 34.3308L16.3386 30.6956C15.2113 24.5765 10.4235 19.7887 4.30441 18.6614L0.669206 17.9917C0.123321 17.8912 0.123321 17.1088 0.669206 17.0083L4.30442 16.3386C10.4235 15.2113 15.2113 10.4235 16.3386 4.30442L17.0083 0.669206Z" fill="#926CFF"/>
</svg>
