<svg width="24" height="24" viewBox="0 0 24 24" fill="none" xmlns="http://www.w3.org/2000/svg">
<path opacity="0.6" d="M11.7517 1.13295C11.786 0.838165 12.214 0.838165 12.2483 1.13295L12.898 6.7137C13.1662 9.01708 14.9829 10.8338 17.2863 11.102L22.867 11.7517C23.1618 11.786 23.1618 12.214 22.867 12.2483L17.2863 12.898C14.9829 13.1662 13.1662 14.9829 12.898 17.2863L12.2483 22.867C12.214 23.1618 11.786 23.1618 11.7517 22.867L11.102 17.2863C10.8338 14.9829 9.01708 13.1662 6.7137 12.898L1.13295 12.2483C0.838165 12.214 0.838165 11.786 1.13295 11.7517L6.7137 11.102C9.01708 10.8338 10.8338 9.01708 11.102 6.7137L11.7517 1.13295Z" fill="#926CFF"/>
</svg>
