<svg width="44" height="44" viewBox="0 0 44 44" fill="none" xmlns="http://www.w3.org/2000/svg">
<path opacity="0.6" d="M21.5083 0.66921C21.6088 0.123326 22.3912 0.123322 22.4917 0.669206L23.8614 8.10438C24.9887 14.2234 29.7766 19.0113 35.8956 20.1386L43.3308 21.5083C43.8767 21.6088 43.8767 22.3912 43.3308 22.4917L35.8956 23.8614C29.7766 24.9887 24.9887 29.7766 23.8614 35.8956L22.4917 43.3308C22.3912 43.8767 21.6088 43.8767 21.5083 43.3308L20.1386 35.8956C19.0113 29.7766 14.2234 24.9887 8.10438 23.8614L0.66921 22.4917C0.123326 22.3912 0.123322 21.6088 0.669206 21.5083L8.10438 20.1386C14.2234 19.0113 19.0113 14.2234 20.1386 8.10438L21.5083 0.66921Z" fill="#926CFF"/>
</svg>
